# MagicaVoxel @ Ephtracy

# group
o 

# material
mtllib export_2023-07-31_10h59m52s.mtl
usemtl palette

# normals
vn -1 0 0
vn 1 0 0
vn 0 0 1
vn 0 0 -1
vn 0 -1 0
vn 0 1 0

# texcoords
vt 0.00195313 0.5
vt 0.00585938 0.5
vt 0.0371094 0.5

# verts
v -0.2 0 0.4
v -0.2 0 0.3
v -0.2 0 0.1
v -0.2 0 0
v -0.2 0.1 0.4
v -0.2 0.1 0.3
v -0.2 0.1 0.1
v -0.2 0.2 0.4
v -0.2 0.2 0
v -0.1 0 0.5
v -0.1 0 0.4
v -0.1 0 0
v -0.1 0 -0.1
v -0.1 0.1 0.5
v -0.1 0.1 0.4
v -0.1 0.2 0.5
v -0.1 0.2 0.4
v -0.1 0.2 0
v -0.1 0.2 -0.1
v 0 0 -0.1
v 0 0 -0.2
v 0 0 -0.4
v 0 0 -0.5
v 0 0 -0.6
v 0 0.1 -0.1
v 0 0.1 -0.2
v 0 0.1 -0.4
v 0 0.1 -0.5
v 0 0.1 -0.6
v 0.1 0 -0.1
v 0.1 0 -0.2
v 0.1 0 -0.4
v 0.1 0 -0.5
v 0.1 0 -0.6
v 0.1 0.1 -0.1
v 0.1 0.1 -0.2
v 0.1 0.1 -0.4
v 0.1 0.1 -0.5
v 0.1 0.1 -0.6
v 0.2 0 0.5
v 0.2 0 0.4
v 0.2 0 0
v 0.2 0 -0.1
v 0.2 0.1 0.5
v 0.2 0.1 0.4
v 0.2 0.1 0
v 0.2 0.1 -0.1
v 0.2 0.2 0.5
v 0.2 0.2 0.4
v 0.2 0.2 0
v 0.2 0.2 -0.1
v 0.3 0 0.4
v 0.3 0 0.3
v 0.3 0 0
v 0.3 0.1 0.4
v 0.3 0.1 0.3
v 0.3 0.1 0.2
v 0.3 0.2 0.4
v 0.3 0.2 0.2
v 0.3 0.2 0
v -0.1 0 0.5
v -0.1 0.1 0.5
v -0.1 0.2 0.5
v 0 0.1 0.5
v 0 0.2 0.5
v 0.2 0 0.5
v 0.2 0.1 0.5
v 0.2 0.2 0.5
v -0.2 0 0.4
v -0.2 0.1 0.4
v -0.2 0.2 0.4
v -0.1 0 0.4
v -0.1 0.1 0.4
v -0.1 0.2 0.4
v 0.2 0 0.4
v 0.2 0.1 0.4
v 0.2 0.2 0.4
v 0.3 0 0.4
v 0.3 0.1 0.4
v 0.3 0.2 0.4
v -0.2 0 0
v -0.2 0.2 0
v -0.1 0 0
v -0.1 0.2 0
v 0.2 0 0
v 0.2 0.1 0
v 0.2 0.2 0
v 0.3 0 0
v 0.3 0.2 0
v -0.1 0 -0.1
v -0.1 0.2 -0.1
v 0 0 -0.1
v 0 0.1 -0.1
v 0 0.2 -0.1
v 0.1 0 -0.1
v 0.1 0.1 -0.1
v 0.2 0 -0.1
v 0.2 0.1 -0.1
v 0.2 0.2 -0.1
v 0 0 -0.6
v 0 0.1 -0.6
v 0.1 0 -0.6
v 0.1 0.1 -0.6
v -0.1 0 0.5
v 0.2 0 0.5
v -0.2 0 0.4
v -0.1 0 0.4
v 0.1 0 0.4
v 0.2 0 0.4
v 0.3 0 0.4
v -0.2 0 0.3
v -0.1 0 0.3
v 0.1 0 0.3
v 0.2 0 0.3
v 0.3 0 0.3
v -0.2 0 0.1
v -0.1 0 0.1
v -0.2 0 0
v -0.1 0 0
v 0.2 0 0
v 0.3 0 0
v -0.1 0 -0.1
v 0 0 -0.1
v 0.1 0 -0.1
v 0.2 0 -0.1
v 0 0 -0.2
v 0.1 0 -0.2
v 0 0 -0.4
v 0.1 0 -0.4
v 0 0 -0.5
v 0.1 0 -0.5
v 0 0 -0.6
v 0.1 0 -0.6
v 0 0.1 -0.1
v 0.1 0.1 -0.1
v 0 0.1 -0.2
v 0.1 0.1 -0.2
v 0 0.1 -0.4
v 0.1 0.1 -0.4
v 0 0.1 -0.5
v 0.1 0.1 -0.5
v 0 0.1 -0.6
v 0.1 0.1 -0.6
v -0.1 0.2 0.5
v 0 0.2 0.5
v 0.2 0.2 0.5
v -0.2 0.2 0.4
v -0.1 0.2 0.4
v 0 0.2 0.4
v 0.2 0.2 0.4
v 0.3 0.2 0.4
v 0.2 0.2 0.2
v 0.3 0.2 0.2
v -0.1 0.2 0.1
v 0 0.2 0.1
v -0.2 0.2 0
v -0.1 0.2 0
v 0.2 0.2 0
v 0.3 0.2 0
v -0.1 0.2 -0.1
v 0 0.2 -0.1
v 0.2 0.2 -0.1

# faces
f 5/3/1 2/3/1 1/3/1
f 6/2/1 3/2/1 2/2/1
f 6/3/1 2/3/1 5/3/1
f 7/1/1 4/1/1 3/1/1
f 7/2/1 3/2/1 6/2/1
f 8/1/1 6/1/1 5/1/1
f 8/1/1 7/1/1 6/1/1
f 9/1/1 4/1/1 7/1/1
f 9/1/1 7/1/1 8/1/1
f 14/3/1 11/3/1 10/3/1
f 15/3/1 11/3/1 14/3/1
f 16/1/1 15/1/1 14/1/1
f 17/1/1 15/1/1 16/1/1
f 18/2/1 13/2/1 12/2/1
f 19/2/1 13/2/1 18/2/1
f 25/2/1 21/2/1 20/2/1
f 26/1/1 22/1/1 21/1/1
f 26/2/1 21/2/1 25/2/1
f 27/2/1 23/2/1 22/2/1
f 27/1/1 22/1/1 26/1/1
f 28/3/1 24/3/1 23/3/1
f 28/2/1 23/2/1 27/2/1
f 29/3/1 24/3/1 28/3/1
f 30/2/2 31/2/2 35/2/2
f 31/1/2 32/1/2 36/1/2
f 35/2/2 31/2/2 36/2/2
f 32/2/2 33/2/2 37/2/2
f 36/1/2 32/1/2 37/1/2
f 33/3/2 34/3/2 38/3/2
f 37/2/2 33/2/2 38/2/2
f 38/3/2 34/3/2 39/3/2
f 40/3/2 41/3/2 44/3/2
f 44/3/2 41/3/2 45/3/2
f 42/2/2 43/2/2 46/2/2
f 46/2/2 43/2/2 47/2/2
f 44/2/2 45/2/2 48/2/2
f 48/2/2 45/2/2 49/2/2
f 46/1/2 47/1/2 50/1/2
f 50/1/2 47/1/2 51/1/2
f 52/3/2 53/3/2 55/3/2
f 53/2/2 54/2/2 56/2/2
f 55/3/2 53/3/2 56/3/2
f 56/2/2 54/2/2 57/2/2
f 55/1/2 56/1/2 58/1/2
f 56/1/2 57/1/2 58/1/2
f 57/2/2 54/2/2 59/2/2
f 58/1/2 57/1/2 59/1/2
f 59/2/2 54/2/2 60/2/2
f 64/3/3 62/3/3 61/3/3
f 64/1/3 63/1/3 62/1/3
f 65/1/3 63/1/3 64/1/3
f 66/3/3 64/3/3 61/3/3
f 67/2/3 65/2/3 64/2/3
f 67/3/3 64/3/3 66/3/3
f 68/2/3 65/2/3 67/2/3
f 72/3/3 70/3/3 69/3/3
f 73/1/3 71/1/3 70/1/3
f 73/3/3 70/3/3 72/3/3
f 74/1/3 71/1/3 73/1/3
f 78/3/3 76/3/3 75/3/3
f 79/1/3 77/1/3 76/1/3
f 79/3/3 76/3/3 78/3/3
f 80/1/3 77/1/3 79/1/3
f 81/1/4 82/1/4 83/1/4
f 83/1/4 82/1/4 84/1/4
f 85/2/4 86/2/4 88/2/4
f 86/2/4 87/2/4 88/2/4
f 88/2/4 87/2/4 89/2/4
f 90/2/4 91/2/4 92/2/4
f 92/2/4 91/2/4 93/2/4
f 93/2/4 91/2/4 94/2/4
f 93/1/4 94/1/4 96/1/4
f 95/2/4 96/2/4 97/2/4
f 96/1/4 94/1/4 98/1/4
f 97/2/4 96/2/4 98/2/4
f 98/1/4 94/1/4 99/1/4
f 100/3/4 101/3/4 102/3/4
f 102/3/4 101/3/4 103/3/4
f 107/3/5 105/3/5 104/3/5
f 108/3/5 105/3/5 107/3/5
f 109/3/5 105/3/5 108/3/5
f 111/3/5 107/3/5 106/3/5
f 112/2/5 108/2/5 107/2/5
f 112/3/5 107/3/5 111/3/5
f 113/1/5 109/1/5 108/1/5
f 113/2/5 108/2/5 112/2/5
f 114/3/5 110/3/5 109/3/5
f 114/1/5 109/1/5 113/1/5
f 115/3/5 110/3/5 114/3/5
f 116/2/5 113/2/5 112/2/5
f 116/2/5 112/2/5 111/2/5
f 116/2/5 115/2/5 114/2/5
f 116/2/5 114/2/5 113/2/5
f 117/2/5 115/2/5 116/2/5
f 118/1/5 117/1/5 116/1/5
f 119/2/5 115/2/5 117/2/5
f 119/1/5 117/1/5 118/1/5
f 120/2/5 115/2/5 119/2/5
f 121/2/5 115/2/5 120/2/5
f 122/2/5 120/2/5 119/2/5
f 123/2/5 120/2/5 122/2/5
f 124/2/5 120/2/5 123/2/5
f 125/2/5 120/2/5 124/2/5
f 126/2/5 124/2/5 123/2/5
f 127/2/5 124/2/5 126/2/5
f 128/1/5 127/1/5 126/1/5
f 129/1/5 127/1/5 128/1/5
f 130/2/5 129/2/5 128/2/5
f 131/2/5 129/2/5 130/2/5
f 132/3/5 131/3/5 130/3/5
f 133/3/5 131/3/5 132/3/5
f 134/2/6 135/2/6 136/2/6
f 136/2/6 135/2/6 137/2/6
f 136/1/6 137/1/6 138/1/6
f 138/1/6 137/1/6 139/1/6
f 138/2/6 139/2/6 140/2/6
f 140/2/6 139/2/6 141/2/6
f 140/3/6 141/3/6 142/3/6
f 142/3/6 141/3/6 143/3/6
f 144/1/6 145/1/6 148/1/6
f 145/2/6 146/2/6 149/2/6
f 148/1/6 145/1/6 149/1/6
f 149/2/6 146/2/6 150/2/6
f 147/1/6 148/1/6 152/1/6
f 150/1/6 151/1/6 152/1/6
f 149/1/6 150/1/6 152/1/6
f 148/1/6 149/1/6 152/1/6
f 152/1/6 151/1/6 153/1/6
f 147/1/6 152/1/6 154/1/6
f 154/1/6 152/1/6 155/1/6
f 147/1/6 154/1/6 156/1/6
f 154/2/6 155/2/6 157/2/6
f 156/1/6 154/1/6 157/1/6
f 152/2/6 153/2/6 158/2/6
f 155/1/6 152/1/6 158/1/6
f 158/2/6 153/2/6 159/2/6
f 157/2/6 155/2/6 160/2/6
f 155/1/6 158/1/6 161/1/6
f 160/2/6 155/2/6 161/2/6
f 161/1/6 158/1/6 162/1/6
