# MagicaVoxel @ Ephtracy

# group
o 

# material
mtllib export_2023-07-30_05h34m51s.mtl
usemtl palette

# normals
vn -1 0 0
vn 1 0 0
vn 0 0 1
vn 0 0 -1
vn 0 -1 0
vn 0 1 0

# texcoords
vt 0.00195313 0.5
vt 0.00585938 0.5
vt 0.00976563 0.5
vt 0.0371094 0.5
vt 0.0488281 0.5
vt 0.236328 0.5

# verts
v -0.5 0 0.5
v -0.5 0 -0.5
v -0.5 0.1 0.4
v -0.5 0.1 0.3
v -0.5 0.1 -0.4
v -0.5 0.2 0.4
v -0.5 0.2 0.3
v -0.5 0.2 0.1
v -0.5 0.2 -0.1
v -0.5 0.4 0.3
v -0.5 0.4 0.1
v -0.5 0.4 -0.1
v -0.5 0.4 -0.2
v -0.5 0.4 -0.3
v -0.5 0.5 -0.1
v -0.5 0.5 -0.2
v -0.5 0.6 0.3
v -0.5 0.6 0.1
v -0.5 0.6 0
v -0.5 0.6 -0.1
v -0.5 0.6 -0.3
v -0.5 0.7 0.1
v -0.5 0.7 0
v -0.5 0.7 -0.3
v -0.5 0.7 -0.4
v -0.5 0.8 0.1
v -0.5 0.8 -0.1
v -0.5 0.8 -0.2
v -0.5 0.8 -0.3
v -0.5 0.9 0.4
v -0.5 0.9 -0.2
v -0.5 0.9 -0.4
v -0.5 1 0.5
v -0.5 1 -0.5
v 0.2 0.6 0.4
v 0.2 0.6 0.3
v 0.2 0.6 -0.1
v 0.2 0.9 0.4
v 0.2 0.9 0.1
v 0.2 0.9 -0.1
v 0.4 0.2 0.4
v 0.4 0.2 0.3
v 0.4 0.6 0.4
v 0.4 0.6 0.3
v 0.4 0.6 -0.1
v 0.4 0.6 -0.3
v 0.4 0.9 -0.1
v 0.4 0.9 -0.3
v -0.4 0.2 0.4
v -0.4 0.2 0.3
v -0.4 0.6 0.3
v -0.4 0.6 0.1
v -0.4 0.6 0
v -0.4 0.6 -0.1
v -0.4 0.6 -0.3
v -0.4 0.7 0.4
v -0.4 0.7 0.1
v -0.4 0.7 0
v -0.4 0.8 0.1
v -0.4 0.8 -0.1
v -0.4 0.8 -0.2
v -0.4 0.8 -0.3
v -0.4 0.9 0.4
v -0.4 0.9 0.2
v -0.4 0.9 -0.2
v -0.4 0.9 -0.3
v 0.5 0 0.5
v 0.5 0 -0.5
v 0.5 0.1 0.4
v 0.5 0.1 -0.3
v 0.5 0.1 -0.4
v 0.5 0.2 0.1
v 0.5 0.2 -0.1
v 0.5 0.2 -0.3
v 0.5 0.2 -0.4
v 0.5 0.4 0.3
v 0.5 0.4 0.2
v 0.5 0.4 0.1
v 0.5 0.4 -0.1
v 0.5 0.4 -0.3
v 0.5 0.5 0.2
v 0.5 0.5 0.1
v 0.5 0.6 0.3
v 0.5 0.6 0.1
v 0.5 0.6 0
v 0.5 0.6 -0.1
v 0.5 0.6 -0.3
v 0.5 0.7 0.4
v 0.5 0.7 0.3
v 0.5 0.7 0
v 0.5 0.7 -0.1
v 0.5 0.8 0.3
v 0.5 0.8 0.2
v 0.5 0.8 0.1
v 0.5 0.8 -0.1
v 0.5 0.9 0.4
v 0.5 0.9 0.2
v 0.5 0.9 -0.4
v 0.5 1 0.5
v 0.5 1 -0.5
v -0.5 0 0.5
v -0.5 1 0.5
v -0.4 0.1 0.5
v -0.4 0.7 0.5
v -0.4 0.9 0.5
v -0.3 0.4 0.5
v -0.3 0.6 0.5
v -0.3 0.7 0.5
v -0.3 0.8 0.5
v -0.2 0.4 0.5
v -0.2 0.5 0.5
v -0.2 0.8 0.5
v -0.2 0.9 0.5
v -0.1 0.2 0.5
v -0.1 0.4 0.5
v -0.1 0.5 0.5
v -0.1 0.6 0.5
v -0.1 0.8 0.5
v 0 0.6 0.5
v 0 0.7 0.5
v 0.1 0.2 0.5
v 0.1 0.4 0.5
v 0.1 0.6 0.5
v 0.1 0.7 0.5
v 0.1 0.8 0.5
v 0.3 0.1 0.5
v 0.3 0.2 0.5
v 0.3 0.4 0.5
v 0.3 0.6 0.5
v 0.4 0.1 0.5
v 0.4 0.2 0.5
v 0.4 0.9 0.5
v 0.5 0 0.5
v 0.5 1 0.5
v -0.4 0.2 0.3
v -0.4 0.6 0.3
v 0.2 0.6 0.3
v 0.4 0.2 0.3
v 0.4 0.6 0.3
v -0.4 0.6 -0.3
v -0.4 0.8 -0.3
v -0.4 0.9 -0.3
v -0.1 0.9 -0.3
v 0.1 0.9 -0.3
v 0.4 0.6 -0.3
v 0.4 0.9 -0.3
v -0.4 0.2 0.4
v -0.4 0.7 0.4
v -0.4 0.9 0.4
v -0.3 0.4 0.4
v -0.3 0.6 0.4
v -0.3 0.7 0.4
v -0.3 0.8 0.4
v -0.2 0.4 0.4
v -0.2 0.5 0.4
v -0.2 0.8 0.4
v -0.2 0.9 0.4
v -0.1 0.2 0.4
v -0.1 0.4 0.4
v -0.1 0.5 0.4
v -0.1 0.6 0.4
v -0.1 0.8 0.4
v 0 0.6 0.4
v 0 0.7 0.4
v 0.1 0.2 0.4
v 0.1 0.4 0.4
v 0.1 0.6 0.4
v 0.1 0.7 0.4
v 0.1 0.8 0.4
v 0.2 0.6 0.4
v 0.2 0.9 0.4
v 0.3 0.4 0.4
v 0.3 0.6 0.4
v 0.4 0.2 0.4
v 0.4 0.6 0.4
v 0.2 0.6 -0.1
v 0.2 0.9 -0.1
v 0.4 0.6 -0.1
v 0.4 0.9 -0.1
v -0.5 0 -0.5
v -0.5 1 -0.5
v -0.4 0.1 -0.5
v -0.4 0.2 -0.5
v -0.4 0.9 -0.5
v -0.3 0.1 -0.5
v -0.3 0.2 -0.5
v -0.3 0.4 -0.5
v -0.3 0.6 -0.5
v -0.1 0.2 -0.5
v -0.1 0.4 -0.5
v -0.1 0.6 -0.5
v -0.1 0.7 -0.5
v -0.1 0.8 -0.5
v 0 0.6 -0.5
v 0 0.7 -0.5
v 0.1 0.2 -0.5
v 0.1 0.4 -0.5
v 0.1 0.5 -0.5
v 0.1 0.6 -0.5
v 0.1 0.8 -0.5
v 0.2 0.4 -0.5
v 0.2 0.5 -0.5
v 0.2 0.8 -0.5
v 0.2 0.9 -0.5
v 0.3 0.4 -0.5
v 0.3 0.6 -0.5
v 0.3 0.7 -0.5
v 0.3 0.8 -0.5
v 0.4 0.1 -0.5
v 0.4 0.7 -0.5
v 0.4 0.9 -0.5
v 0.5 0 -0.5
v 0.5 1 -0.5
v -0.5 0 0.5
v 0.5 0 0.5
v -0.4 0 0.4
v 0.4 0 0.4
v -0.1 0 0.3
v 0.1 0 0.3
v -0.3 0 0.1
v -0.1 0 0.1
v 0.1 0 0.1
v 0.3 0 0.1
v -0.3 0 -0.1
v -0.1 0 -0.1
v 0.1 0 -0.1
v 0.3 0 -0.1
v -0.1 0 -0.3
v 0.1 0 -0.3
v -0.4 0 -0.4
v 0.4 0 -0.4
v -0.5 0 -0.5
v 0.5 0 -0.5
v 0.2 0.6 0.4
v 0.3 0.6 0.4
v 0.4 0.6 0.4
v 0.2 0.6 0.3
v 0.4 0.6 0.3
v -0.4 0.9 0.4
v -0.2 0.9 0.4
v 0.2 0.9 0.4
v -0.3 0.9 0.3
v -0.2 0.9 0.3
v -0.1 0.9 0.3
v 0.1 0.9 0.3
v -0.4 0.9 0.2
v -0.3 0.9 0.2
v 0 0.9 0.2
v 0.1 0.9 0.2
v -0.3 0.9 0.1
v -0.1 0.9 0.1
v 0 0.9 0.1
v 0.1 0.9 0.1
v 0.2 0.9 0.1
v -0.2 0.9 0
v -0.1 0.9 0
v -0.3 0.9 -0.1
v -0.2 0.9 -0.1
v -0.1 0.9 -0.1
v 0.1 0.9 -0.1
v 0.2 0.9 -0.1
v 0.4 0.9 -0.1
v -0.4 0.9 -0.2
v -0.4 0.9 -0.3
v -0.1 0.9 -0.3
v 0.1 0.9 -0.3
v 0.4 0.9 -0.3
v -0.4 0.2 0.4
v -0.1 0.2 0.4
v 0.1 0.2 0.4
v 0.4 0.2 0.4
v -0.4 0.2 0.3
v 0.4 0.2 0.3
v -0.4 0.6 0.3
v 0.2 0.6 0.3
v -0.4 0.6 0.1
v -0.4 0.6 0
v -0.4 0.6 -0.1
v 0.2 0.6 -0.1
v 0.4 0.6 -0.1
v -0.4 0.6 -0.3
v 0.4 0.6 -0.3
v -0.5 1 0.5
v 0.5 1 0.5
v -0.4 1 0.4
v -0.2 1 0.4
v 0.4 1 0.4
v -0.3 1 0.3
v -0.2 1 0.3
v -0.1 1 0.3
v 0.1 1 0.3
v -0.4 1 0.2
v -0.3 1 0.2
v 0 1 0.2
v 0.1 1 0.2
v -0.3 1 0.1
v -0.1 1 0.1
v 0 1 0.1
v 0.1 1 0.1
v 0.3 1 0.1
v -0.2 1 0
v -0.1 1 0
v -0.3 1 -0.1
v -0.2 1 -0.1
v -0.1 1 -0.1
v 0.1 1 -0.1
v 0.3 1 -0.1
v -0.1 1 -0.3
v 0.1 1 -0.3
v 0.3 1 -0.3
v 0.4 1 -0.3
v -0.4 1 -0.4
v 0.3 1 -0.4
v 0.4 1 -0.4
v -0.5 1 -0.5
v 0.5 1 -0.5

# faces
f 3/5/1 2/5/1 1/5/1
f 4/5/1 2/5/1 3/5/1
f 5/5/1 2/5/1 4/5/1
f 6/5/1 3/5/1 1/5/1
f 6/1/1 4/1/1 3/1/1
f 7/4/1 5/4/1 4/4/1
f 7/1/1 4/1/1 6/1/1
f 8/4/1 5/4/1 7/4/1
f 9/4/1 5/4/1 8/4/1
f 10/4/1 7/4/1 6/4/1
f 10/4/1 8/4/1 7/4/1
f 11/3/1 9/3/1 8/3/1
f 11/4/1 8/4/1 10/4/1
f 12/4/1 5/4/1 9/4/1
f 12/3/1 9/3/1 11/3/1
f 13/4/1 5/4/1 12/4/1
f 14/4/1 5/4/1 13/4/1
f 15/3/1 11/3/1 10/3/1
f 15/3/1 12/3/1 11/3/1
f 15/3/1 13/3/1 12/3/1
f 16/6/1 14/6/1 13/6/1
f 16/3/1 13/3/1 15/3/1
f 17/4/1 10/4/1 6/4/1
f 17/3/1 15/3/1 10/3/1
f 18/3/1 15/3/1 17/3/1
f 19/3/1 15/3/1 18/3/1
f 20/6/1 16/6/1 15/6/1
f 20/3/1 15/3/1 19/3/1
f 21/4/1 5/4/1 14/4/1
f 21/6/1 16/6/1 20/6/1
f 21/6/1 14/6/1 16/6/1
f 22/4/1 18/4/1 17/4/1
f 22/3/1 19/3/1 18/3/1
f 23/6/1 20/6/1 19/6/1
f 23/3/1 19/3/1 22/3/1
f 24/4/1 5/4/1 21/4/1
f 24/4/1 21/4/1 20/4/1
f 25/5/1 2/5/1 5/5/1
f 25/4/1 5/4/1 24/4/1
f 26/4/1 22/4/1 17/4/1
f 26/6/1 23/6/1 22/6/1
f 27/4/1 24/4/1 20/4/1
f 27/6/1 23/6/1 26/6/1
f 27/6/1 20/6/1 23/6/1
f 28/4/1 24/4/1 27/4/1
f 29/1/1 25/1/1 24/1/1
f 29/4/1 24/4/1 28/4/1
f 30/4/1 26/4/1 17/4/1
f 30/5/1 6/5/1 1/5/1
f 30/4/1 17/4/1 6/4/1
f 30/4/1 27/4/1 26/4/1
f 30/4/1 28/4/1 27/4/1
f 31/1/1 29/1/1 28/1/1
f 31/4/1 28/4/1 30/4/1
f 32/1/1 25/1/1 29/1/1
f 32/1/1 29/1/1 31/1/1
f 32/5/1 2/5/1 25/5/1
f 33/5/1 31/5/1 30/5/1
f 33/5/1 30/5/1 1/5/1
f 33/5/1 32/5/1 31/5/1
f 34/5/1 2/5/1 32/5/1
f 34/5/1 32/5/1 33/5/1
f 38/2/1 36/2/1 35/2/1
f 38/2/1 37/2/1 36/2/1
f 39/2/1 37/2/1 38/2/1
f 40/2/1 37/2/1 39/2/1
f 43/4/1 42/4/1 41/4/1
f 44/4/1 42/4/1 43/4/1
f 47/4/1 46/4/1 45/4/1
f 48/4/1 46/4/1 47/4/1
f 49/4/2 50/4/2 51/4/2
f 49/4/2 51/4/2 56/4/2
f 51/4/2 52/4/2 56/4/2
f 52/3/2 53/3/2 57/3/2
f 56/4/2 52/4/2 57/4/2
f 53/6/2 54/6/2 58/6/2
f 57/3/2 53/3/2 58/3/2
f 56/4/2 57/4/2 59/4/2
f 57/6/2 58/6/2 59/6/2
f 54/4/2 55/4/2 60/4/2
f 59/6/2 58/6/2 60/6/2
f 58/6/2 54/6/2 60/6/2
f 60/4/2 55/4/2 61/4/2
f 61/4/2 55/4/2 62/4/2
f 56/4/2 59/4/2 63/4/2
f 59/4/2 60/4/2 63/4/2
f 60/4/2 61/4/2 63/4/2
f 63/4/2 61/4/2 64/4/2
f 61/1/2 62/1/2 65/1/2
f 64/4/2 61/4/2 65/4/2
f 65/1/2 62/1/2 66/1/2
f 67/5/2 68/5/2 69/5/2
f 69/5/2 68/5/2 70/5/2
f 70/5/2 68/5/2 71/5/2
f 69/4/2 70/4/2 72/4/2
f 72/4/2 70/4/2 73/4/2
f 70/1/2 71/1/2 74/1/2
f 73/4/2 70/4/2 74/4/2
f 71/5/2 68/5/2 75/5/2
f 74/1/2 71/1/2 75/1/2
f 69/4/2 72/4/2 76/4/2
f 76/4/2 72/4/2 77/4/2
f 72/3/2 73/3/2 78/3/2
f 77/4/2 72/4/2 78/4/2
f 73/4/2 74/4/2 79/4/2
f 78/3/2 73/3/2 79/3/2
f 74/4/2 75/4/2 79/4/2
f 79/4/2 75/4/2 80/4/2
f 77/3/2 78/3/2 81/3/2
f 76/6/2 77/6/2 81/6/2
f 79/3/2 80/3/2 81/3/2
f 78/3/2 79/3/2 81/3/2
f 81/3/2 80/3/2 82/3/2
f 69/4/2 76/4/2 83/4/2
f 76/6/2 81/6/2 83/6/2
f 81/6/2 82/6/2 83/6/2
f 82/3/2 80/3/2 84/3/2
f 83/6/2 82/6/2 84/6/2
f 84/3/2 80/3/2 85/3/2
f 85/3/2 80/3/2 86/3/2
f 80/4/2 75/4/2 87/4/2
f 86/3/2 80/3/2 87/3/2
f 67/5/2 69/5/2 88/5/2
f 69/4/2 83/4/2 88/4/2
f 83/4/2 84/4/2 88/4/2
f 88/4/2 84/4/2 89/4/2
f 85/3/2 86/3/2 90/3/2
f 84/6/2 85/6/2 90/6/2
f 86/4/2 87/4/2 91/4/2
f 90/3/2 86/3/2 91/3/2
f 89/4/2 84/4/2 92/4/2
f 88/1/2 89/1/2 92/1/2
f 92/4/2 84/4/2 93/4/2
f 84/6/2 90/6/2 94/6/2
f 93/4/2 84/4/2 94/4/2
f 90/6/2 91/6/2 94/6/2
f 91/4/2 87/4/2 95/4/2
f 94/6/2 91/6/2 95/6/2
f 92/1/2 93/1/2 96/1/2
f 88/1/2 92/1/2 96/1/2
f 67/5/2 88/5/2 96/5/2
f 93/4/2 94/4/2 97/4/2
f 96/1/2 93/1/2 97/1/2
f 94/4/2 95/4/2 97/4/2
f 87/4/2 75/4/2 98/4/2
f 97/4/2 95/4/2 98/4/2
f 95/4/2 87/4/2 98/4/2
f 75/5/2 68/5/2 98/5/2
f 96/5/2 97/5/2 99/5/2
f 67/5/2 96/5/2 99/5/2
f 97/5/2 98/5/2 99/5/2
f 98/5/2 68/5/2 100/5/2
f 99/5/2 98/5/2 100/5/2
f 103/5/3 102/5/3 101/5/3
f 104/5/3 102/5/3 103/5/3
f 105/5/3 102/5/3 104/5/3
f 106/4/3 104/4/3 103/4/3
f 107/4/3 104/4/3 106/4/3
f 108/1/3 105/1/3 104/1/3
f 108/4/3 104/4/3 107/4/3
f 109/1/3 105/1/3 108/1/3
f 110/6/3 107/6/3 106/6/3
f 110/4/3 106/4/3 103/4/3
f 111/6/3 107/6/3 110/6/3
f 112/1/3 105/1/3 109/1/3
f 112/4/3 109/4/3 108/4/3
f 112/4/3 108/4/3 107/4/3
f 113/5/3 102/5/3 105/5/3
f 113/1/3 105/1/3 112/1/3
f 114/4/3 110/4/3 103/4/3
f 115/3/3 111/3/3 110/3/3
f 115/4/3 110/4/3 114/4/3
f 116/6/3 107/6/3 111/6/3
f 116/3/3 111/3/3 115/3/3
f 117/4/3 112/4/3 107/4/3
f 117/6/3 107/6/3 116/6/3
f 117/4/3 113/4/3 112/4/3
f 118/4/3 113/4/3 117/4/3
f 119/3/3 116/3/3 115/3/3
f 119/3/3 115/3/3 114/3/3
f 119/6/3 118/6/3 117/6/3
f 119/3/3 117/3/3 116/3/3
f 120/6/3 118/6/3 119/6/3
f 121/4/3 114/4/3 103/4/3
f 121/3/3 119/3/3 114/3/3
f 121/3/3 120/3/3 119/3/3
f 122/3/3 120/3/3 121/3/3
f 123/3/3 120/3/3 122/3/3
f 124/6/3 118/6/3 120/6/3
f 124/3/3 120/3/3 123/3/3
f 125/4/3 113/4/3 118/4/3
f 125/6/3 118/6/3 124/6/3
f 126/5/3 103/5/3 101/5/3
f 126/4/3 121/4/3 103/4/3
f 126/4/3 122/4/3 121/4/3
f 127/4/3 122/4/3 126/4/3
f 128/3/3 123/3/3 122/3/3
f 128/4/3 122/4/3 127/4/3
f 129/4/3 124/4/3 123/4/3
f 129/3/3 123/3/3 128/3/3
f 129/4/3 125/4/3 124/4/3
f 130/1/3 127/1/3 126/1/3
f 130/5/3 126/5/3 101/5/3
f 131/4/3 128/4/3 127/4/3
f 131/1/3 127/1/3 130/1/3
f 131/4/3 129/4/3 128/4/3
f 132/4/3 113/4/3 125/4/3
f 132/4/3 129/4/3 131/4/3
f 132/5/3 102/5/3 113/5/3
f 132/4/3 125/4/3 129/4/3
f 133/5/3 131/5/3 130/5/3
f 133/5/3 130/5/3 101/5/3
f 133/5/3 132/5/3 131/5/3
f 134/5/3 102/5/3 132/5/3
f 134/5/3 132/5/3 133/5/3
f 137/2/3 136/2/3 135/2/3
f 138/2/3 137/2/3 135/2/3
f 139/2/3 137/2/3 138/2/3
f 143/2/3 141/2/3 140/2/3
f 143/2/3 142/2/3 141/2/3
f 144/2/3 143/2/3 140/2/3
f 145/2/3 144/2/3 140/2/3
f 146/2/3 144/2/3 145/2/3
f 147/4/4 148/4/4 150/4/4
f 150/4/4 148/4/4 151/4/4
f 148/1/4 149/1/4 152/1/4
f 151/4/4 148/4/4 152/4/4
f 152/1/4 149/1/4 153/1/4
f 150/6/4 151/6/4 154/6/4
f 147/4/4 150/4/4 154/4/4
f 154/6/4 151/6/4 155/6/4
f 153/1/4 149/1/4 156/1/4
f 152/4/4 153/4/4 156/4/4
f 151/4/4 152/4/4 156/4/4
f 156/1/4 149/1/4 157/1/4
f 147/4/4 154/4/4 158/4/4
f 154/3/4 155/3/4 159/3/4
f 158/4/4 154/4/4 159/4/4
f 155/6/4 151/6/4 160/6/4
f 159/3/4 155/3/4 160/3/4
f 151/4/4 156/4/4 161/4/4
f 160/6/4 151/6/4 161/6/4
f 156/4/4 157/4/4 161/4/4
f 161/4/4 157/4/4 162/4/4
f 158/3/4 159/3/4 163/3/4
f 159/3/4 160/3/4 163/3/4
f 161/6/4 162/6/4 163/6/4
f 160/3/4 161/3/4 163/3/4
f 163/6/4 162/6/4 164/6/4
f 158/3/4 163/3/4 165/3/4
f 163/3/4 164/3/4 165/3/4
f 165/3/4 164/3/4 166/3/4
f 166/3/4 164/3/4 167/3/4
f 164/6/4 162/6/4 168/6/4
f 167/3/4 164/3/4 168/3/4
f 162/4/4 157/4/4 169/4/4
f 168/6/4 162/6/4 169/6/4
f 167/4/4 168/4/4 170/4/4
f 166/3/4 167/3/4 170/3/4
f 168/4/4 169/4/4 170/4/4
f 169/4/4 157/4/4 171/4/4
f 170/4/4 169/4/4 171/4/4
f 166/3/4 170/3/4 172/3/4
f 165/4/4 166/4/4 172/4/4
f 172/3/4 170/3/4 173/3/4
f 165/4/4 172/4/4 174/4/4
f 172/4/4 173/4/4 174/4/4
f 174/4/4 173/4/4 175/4/4
f 176/2/4 177/2/4 178/2/4
f 178/2/4 177/2/4 179/2/4
f 180/5/4 181/5/4 182/5/4
f 182/5/4 181/5/4 183/5/4
f 183/5/4 181/5/4 184/5/4
f 180/5/4 182/5/4 185/5/4
f 182/1/4 183/1/4 185/1/4
f 183/4/4 184/4/4 186/4/4
f 185/1/4 183/1/4 186/1/4
f 186/4/4 184/4/4 187/4/4
f 187/4/4 184/4/4 188/4/4
f 185/4/4 186/4/4 189/4/4
f 186/4/4 187/4/4 189/4/4
f 187/3/4 188/3/4 190/3/4
f 189/4/4 187/4/4 190/4/4
f 188/4/4 184/4/4 191/4/4
f 190/3/4 188/3/4 191/3/4
f 191/4/4 184/4/4 192/4/4
f 192/4/4 184/4/4 193/4/4
f 189/3/4 190/3/4 194/3/4
f 190/3/4 191/3/4 194/3/4
f 191/3/4 192/3/4 194/3/4
f 192/6/4 193/6/4 195/6/4
f 194/3/4 192/3/4 195/3/4
f 185/4/4 189/4/4 196/4/4
f 189/3/4 194/3/4 196/3/4
f 196/3/4 194/3/4 197/3/4
f 197/3/4 194/3/4 198/3/4
f 194/6/4 195/6/4 199/6/4
f 198/3/4 194/3/4 199/3/4
f 193/4/4 184/4/4 200/4/4
f 199/6/4 195/6/4 200/6/4
f 195/6/4 193/6/4 200/6/4
f 196/4/4 197/4/4 201/4/4
f 197/3/4 198/3/4 201/3/4
f 198/6/4 199/6/4 202/6/4
f 201/3/4 198/3/4 202/3/4
f 200/4/4 184/4/4 203/4/4
f 199/4/4 200/4/4 203/4/4
f 184/5/4 181/5/4 204/5/4
f 203/4/4 184/4/4 204/4/4
f 196/4/4 201/4/4 205/4/4
f 201/6/4 202/6/4 205/6/4
f 199/4/4 203/4/4 206/4/4
f 205/6/4 202/6/4 206/6/4
f 202/6/4 199/6/4 206/6/4
f 206/4/4 203/4/4 207/4/4
f 203/1/4 204/1/4 208/1/4
f 207/4/4 203/4/4 208/4/4
f 196/4/4 205/4/4 209/4/4
f 180/5/4 185/5/4 209/5/4
f 185/4/4 196/4/4 209/4/4
f 205/4/4 206/4/4 209/4/4
f 206/4/4 207/4/4 209/4/4
f 207/1/4 208/1/4 210/1/4
f 209/4/4 207/4/4 210/4/4
f 208/1/4 204/1/4 211/1/4
f 210/1/4 208/1/4 211/1/4
f 204/5/4 181/5/4 211/5/4
f 209/5/4 210/5/4 212/5/4
f 180/5/4 209/5/4 212/5/4
f 210/5/4 211/5/4 212/5/4
f 211/5/4 181/5/4 213/5/4
f 212/5/4 211/5/4 213/5/4
f 216/5/5 215/5/5 214/5/5
f 217/5/5 215/5/5 216/5/5
f 218/4/5 217/4/5 216/4/5
f 219/4/5 217/4/5 218/4/5
f 220/4/5 218/4/5 216/4/5
f 221/3/5 219/3/5 218/3/5
f 221/4/5 218/4/5 220/4/5
f 222/4/5 217/4/5 219/4/5
f 222/3/5 219/3/5 221/3/5
f 223/4/5 217/4/5 222/4/5
f 224/3/5 221/3/5 220/3/5
f 224/4/5 220/4/5 216/4/5
f 224/3/5 223/3/5 222/3/5
f 224/3/5 222/3/5 221/3/5
f 225/3/5 223/3/5 224/3/5
f 226/3/5 223/3/5 225/3/5
f 227/4/5 217/4/5 223/4/5
f 227/3/5 223/3/5 226/3/5
f 228/3/5 226/3/5 225/3/5
f 228/4/5 225/4/5 224/4/5
f 229/4/5 227/4/5 226/4/5
f 229/3/5 226/3/5 228/3/5
f 230/5/5 216/5/5 214/5/5
f 230/4/5 224/4/5 216/4/5
f 230/4/5 229/4/5 228/4/5
f 230/4/5 228/4/5 224/4/5
f 231/4/5 227/4/5 229/4/5
f 231/4/5 229/4/5 230/4/5
f 231/5/5 215/5/5 217/5/5
f 231/4/5 217/4/5 227/4/5
f 232/5/5 230/5/5 214/5/5
f 232/5/5 231/5/5 230/5/5
f 233/5/5 215/5/5 231/5/5
f 233/5/5 231/5/5 232/5/5
f 237/2/5 235/2/5 234/2/5
f 237/2/5 236/2/5 235/2/5
f 238/2/5 236/2/5 237/2/5
f 242/1/5 240/1/5 239/1/5
f 243/4/5 241/4/5 240/4/5
f 243/1/5 240/1/5 242/1/5
f 244/4/5 241/4/5 243/4/5
f 245/4/5 241/4/5 244/4/5
f 246/1/5 242/1/5 239/1/5
f 247/4/5 243/4/5 242/4/5
f 247/1/5 242/1/5 246/1/5
f 247/4/5 244/4/5 243/4/5
f 248/6/5 245/6/5 244/6/5
f 249/4/5 241/4/5 245/4/5
f 249/6/5 245/6/5 248/6/5
f 250/4/5 244/4/5 247/4/5
f 250/4/5 247/4/5 246/4/5
f 251/6/5 248/6/5 244/6/5
f 251/4/5 244/4/5 250/4/5
f 252/3/5 249/3/5 248/3/5
f 252/6/5 248/6/5 251/6/5
f 253/4/5 241/4/5 249/4/5
f 253/3/5 249/3/5 252/3/5
f 254/4/5 241/4/5 253/4/5
f 255/6/5 251/6/5 250/6/5
f 256/3/5 252/3/5 251/3/5
f 256/6/5 251/6/5 255/6/5
f 256/3/5 253/3/5 252/3/5
f 256/3/5 254/3/5 253/3/5
f 257/4/5 250/4/5 246/4/5
f 257/6/5 255/6/5 250/6/5
f 258/3/5 256/3/5 255/3/5
f 258/6/5 255/6/5 257/6/5
f 259/3/5 254/3/5 256/3/5
f 259/3/5 256/3/5 258/3/5
f 260/3/5 254/3/5 259/3/5
f 261/3/5 254/3/5 260/3/5
f 263/4/5 258/4/5 257/4/5
f 263/4/5 257/4/5 246/4/5
f 263/4/5 259/4/5 258/4/5
f 264/4/5 259/4/5 263/4/5
f 265/3/5 260/3/5 259/3/5
f 265/4/5 259/4/5 264/4/5
f 266/4/5 262/4/5 261/4/5
f 266/3/5 260/3/5 265/3/5
f 266/4/5 261/4/5 260/4/5
f 267/4/5 262/4/5 266/4/5
f 268/2/6 269/2/6 272/2/6
f 270/2/6 271/2/6 272/2/6
f 269/2/6 270/2/6 272/2/6
f 272/2/6 271/2/6 273/2/6
f 274/2/6 275/2/6 276/2/6
f 276/2/6 275/2/6 277/2/6
f 277/2/6 275/2/6 278/2/6
f 278/2/6 275/2/6 279/2/6
f 278/2/6 279/2/6 281/2/6
f 279/2/6 280/2/6 281/2/6
f 281/2/6 280/2/6 282/2/6
f 283/5/6 284/5/6 285/5/6
f 285/5/6 284/5/6 286/5/6
f 286/5/6 284/5/6 287/5/6
f 285/1/6 286/1/6 288/1/6
f 286/4/6 287/4/6 289/4/6
f 288/1/6 286/1/6 289/1/6
f 289/4/6 287/4/6 290/4/6
f 290/4/6 287/4/6 291/4/6
f 283/5/6 285/5/6 292/5/6
f 285/1/6 288/1/6 292/1/6
f 288/4/6 289/4/6 293/4/6
f 292/1/6 288/1/6 293/1/6
f 289/4/6 290/4/6 293/4/6
f 290/6/6 291/6/6 294/6/6
f 291/4/6 287/4/6 295/4/6
f 294/6/6 291/6/6 295/6/6
f 293/4/6 290/4/6 296/4/6
f 292/4/6 293/4/6 296/4/6
f 290/6/6 294/6/6 297/6/6
f 296/4/6 290/4/6 297/4/6
f 294/3/6 295/3/6 298/3/6
f 297/6/6 294/6/6 298/6/6
f 295/4/6 287/4/6 299/4/6
f 298/3/6 295/3/6 299/3/6
f 299/4/6 287/4/6 300/4/6
f 296/6/6 297/6/6 301/6/6
f 297/3/6 298/3/6 302/3/6
f 301/6/6 297/6/6 302/6/6
f 298/3/6 299/3/6 302/3/6
f 299/3/6 300/3/6 302/3/6
f 292/4/6 296/4/6 303/4/6
f 296/6/6 301/6/6 303/6/6
f 301/3/6 302/3/6 304/3/6
f 303/6/6 301/6/6 304/6/6
f 302/3/6 300/3/6 305/3/6
f 304/3/6 302/3/6 305/3/6
f 305/3/6 300/3/6 306/3/6
f 300/4/6 287/4/6 307/4/6
f 306/3/6 300/3/6 307/3/6
f 303/4/6 304/4/6 308/4/6
f 305/3/6 306/3/6 308/3/6
f 304/4/6 305/4/6 308/4/6
f 306/4/6 307/4/6 309/4/6
f 308/3/6 306/3/6 309/3/6
f 307/4/6 287/4/6 310/4/6
f 309/4/6 307/4/6 310/4/6
f 287/5/6 284/5/6 311/5/6
f 310/4/6 287/4/6 311/4/6
f 308/4/6 309/4/6 312/4/6
f 309/4/6 310/4/6 312/4/6
f 292/4/6 303/4/6 312/4/6
f 303/4/6 308/4/6 312/4/6
f 283/5/6 292/5/6 312/5/6
f 310/1/6 311/1/6 313/1/6
f 312/4/6 310/4/6 313/4/6
f 311/5/6 284/5/6 314/5/6
f 313/1/6 311/1/6 314/1/6
f 312/5/6 313/5/6 315/5/6
f 283/5/6 312/5/6 315/5/6
f 313/5/6 314/5/6 315/5/6
f 314/5/6 284/5/6 316/5/6
f 315/5/6 314/5/6 316/5/6
