# MagicaVoxel @ Ephtracy

# group
o 

# material
mtllib export_2023-07-31_11h48m33s.mtl
usemtl palette

# normals
vn -1 0 0
vn 1 0 0
vn 0 0 1
vn 0 0 -1
vn 0 -1 0
vn 0 1 0

# texcoords
vt 0.00195313 0.5
vt 0.00585938 0.5
vt 0.0214844 0.5
vt 0.0253906 0.5
vt 0.0722656 0.5

# verts
v -0.2 0 0.4
v -0.2 0 -0.1
v -0.2 0.1 0
v -0.2 0.1 -0.1
v -0.2 0.2 0.4
v -0.2 0.2 0
v -0.2 0.2 -0.1
v -0.1 0 0.5
v -0.1 0 0.4
v -0.1 0 -0.1
v -0.1 0 -0.2
v -0.1 0.1 0.5
v -0.1 0.1 0.4
v -0.1 0.1 -0.1
v -0.1 0.2 0.5
v -0.1 0.2 0.4
v -0.1 0.2 -0.1
v -0.1 0.2 -0.2
v 0 0.1 -0.2
v 0 0.1 -0.5
v 0 0.1 -0.6
v 0 0.2 -0.2
v 0 0.2 -0.5
v 0 0.2 -0.6
v 0.1 0.1 -0.2
v 0.1 0.1 -0.5
v 0.1 0.1 -0.6
v 0.1 0.2 -0.2
v 0.1 0.2 -0.5
v 0.1 0.2 -0.6
v 0.2 0 0.5
v 0.2 0 0.4
v 0.2 0 -0.1
v 0.2 0 -0.2
v 0.2 0.1 -0.1
v 0.2 0.2 0.5
v 0.2 0.2 0.4
v 0.2 0.2 -0.1
v 0.2 0.2 -0.2
v 0.3 0 0.4
v 0.3 0 0.3
v 0.3 0 -0.1
v 0.3 0.1 0
v 0.3 0.1 -0.1
v 0.3 0.2 0.4
v 0.3 0.2 0.3
v 0.3 0.2 0
v 0.3 0.2 -0.1
v -0.1 0 0.5
v -0.1 0.1 0.5
v -0.1 0.2 0.5
v 0 0.1 0.5
v 0 0.2 0.5
v 0.2 0 0.5
v 0.2 0.2 0.5
v -0.2 0 0.4
v -0.2 0.2 0.4
v -0.1 0 0.4
v -0.1 0.1 0.4
v -0.1 0.2 0.4
v 0.2 0 0.4
v 0.2 0.2 0.4
v 0.3 0 0.4
v 0.3 0.2 0.4
v -0.2 0 -0.1
v -0.2 0.1 -0.1
v -0.2 0.2 -0.1
v -0.1 0 -0.1
v -0.1 0.1 -0.1
v -0.1 0.2 -0.1
v 0.2 0 -0.1
v 0.2 0.1 -0.1
v 0.2 0.2 -0.1
v 0.3 0 -0.1
v 0.3 0.1 -0.1
v 0.3 0.2 -0.1
v -0.1 0 -0.2
v -0.1 0.2 -0.2
v 0 0.1 -0.2
v 0 0.2 -0.2
v 0.1 0 -0.2
v 0.1 0.1 -0.2
v 0.1 0.2 -0.2
v 0.2 0 -0.2
v 0.2 0.2 -0.2
v 0 0.1 -0.6
v 0 0.2 -0.6
v 0.1 0.1 -0.6
v 0.1 0.2 -0.6
v -0.1 0 0.5
v 0.2 0 0.5
v -0.2 0 0.4
v -0.1 0 0.4
v 0.2 0 0.4
v 0.3 0 0.4
v 0.2 0 0.3
v 0.3 0 0.3
v -0.2 0 -0.1
v -0.1 0 -0.1
v 0.1 0 -0.1
v 0.2 0 -0.1
v 0.3 0 -0.1
v -0.1 0 -0.2
v 0.1 0 -0.2
v 0.2 0 -0.2
v 0 0.1 -0.2
v 0.1 0.1 -0.2
v 0 0.1 -0.5
v 0.1 0.1 -0.5
v 0 0.1 -0.6
v 0.1 0.1 -0.6
v -0.1 0.2 0.5
v 0 0.2 0.5
v 0.2 0.2 0.5
v -0.2 0.2 0.4
v -0.1 0.2 0.4
v 0 0.2 0.4
v 0.1 0.2 0.4
v 0.2 0.2 0.4
v 0.3 0.2 0.4
v -0.1 0.2 0.3
v 0 0.2 0.3
v 0.1 0.2 0.3
v 0.2 0.2 0.3
v 0.3 0.2 0.3
v 0 0.2 0.2
v 0.1 0.2 0.2
v -0.1 0.2 0.1
v 0 0.2 0.1
v 0.1 0.2 0.1
v 0.2 0.2 0.1
v -0.2 0.2 0
v -0.1 0.2 0
v 0 0.2 0
v 0.1 0.2 0
v 0.2 0.2 0
v 0.3 0.2 0
v -0.2 0.2 -0.1
v -0.1 0.2 -0.1
v 0 0.2 -0.1
v 0.2 0.2 -0.1
v 0.3 0.2 -0.1
v -0.1 0.2 -0.2
v 0 0.2 -0.2
v 0.1 0.2 -0.2
v 0.2 0.2 -0.2
v 0 0.2 -0.5
v 0.1 0.2 -0.5
v 0 0.2 -0.6
v 0.1 0.2 -0.6

# faces
f 3/1/1 2/1/1 1/1/1
f 4/1/1 2/1/1 3/1/1
f 5/1/1 3/1/1 1/1/1
f 6/2/1 4/2/1 3/2/1
f 6/1/1 3/1/1 5/1/1
f 7/2/1 4/2/1 6/2/1
f 12/1/1 9/1/1 8/1/1
f 13/1/1 9/1/1 12/1/1
f 14/1/1 11/1/1 10/1/1
f 15/2/1 13/2/1 12/2/1
f 16/2/1 13/2/1 15/2/1
f 17/1/1 11/1/1 14/1/1
f 18/1/1 11/1/1 17/1/1
f 22/3/1 20/3/1 19/3/1
f 23/2/1 21/2/1 20/2/1
f 23/3/1 20/3/1 22/3/1
f 24/2/1 21/2/1 23/2/1
f 25/3/2 26/3/2 28/3/2
f 26/2/2 27/2/2 29/2/2
f 28/3/2 26/3/2 29/3/2
f 29/2/2 27/2/2 30/2/2
f 33/2/2 34/2/2 35/2/2
f 31/1/2 32/1/2 36/1/2
f 36/1/2 32/1/2 37/1/2
f 35/2/2 34/2/2 38/2/2
f 38/2/2 34/2/2 39/2/2
f 41/1/2 42/1/2 43/1/2
f 43/1/2 42/1/2 44/1/2
f 40/2/2 41/2/2 45/2/2
f 41/1/2 43/1/2 46/1/2
f 45/2/2 41/2/2 46/2/2
f 43/2/2 44/2/2 47/2/2
f 46/1/2 43/1/2 47/1/2
f 47/2/2 44/2/2 48/2/2
f 52/1/3 50/1/3 49/1/3
f 52/2/3 51/2/3 50/2/3
f 53/2/3 51/2/3 52/2/3
f 54/1/3 52/1/3 49/1/3
f 54/1/3 53/1/3 52/1/3
f 55/1/3 53/1/3 54/1/3
f 58/1/3 57/1/3 56/1/3
f 59/1/3 57/1/3 58/1/3
f 60/1/3 57/1/3 59/1/3
f 63/2/3 62/2/3 61/2/3
f 64/2/3 62/2/3 63/2/3
f 65/1/4 66/1/4 68/1/4
f 66/2/4 67/2/4 69/2/4
f 68/1/4 66/1/4 69/1/4
f 69/2/4 67/2/4 70/2/4
f 71/1/4 72/1/4 74/1/4
f 72/2/4 73/2/4 75/2/4
f 74/1/4 72/1/4 75/1/4
f 75/2/4 73/2/4 76/2/4
f 77/1/4 78/1/4 79/1/4
f 79/1/4 78/1/4 80/1/4
f 77/1/4 79/1/4 81/1/4
f 81/1/4 79/1/4 82/1/4
f 81/2/4 82/2/4 84/2/4
f 82/2/4 83/2/4 84/2/4
f 84/2/4 83/2/4 85/2/4
f 86/2/4 87/2/4 88/2/4
f 88/2/4 87/2/4 89/2/4
f 93/1/5 91/1/5 90/1/5
f 94/1/5 91/1/5 93/1/5
f 96/1/5 93/1/5 92/1/5
f 96/2/5 95/2/5 94/2/5
f 96/1/5 94/1/5 93/1/5
f 97/2/5 95/2/5 96/2/5
f 98/1/5 96/1/5 92/1/5
f 98/1/5 97/1/5 96/1/5
f 99/1/5 97/1/5 98/1/5
f 100/1/5 97/1/5 99/1/5
f 101/1/5 97/1/5 100/1/5
f 102/1/5 97/1/5 101/1/5
f 103/1/5 100/1/5 99/1/5
f 104/2/5 101/2/5 100/2/5
f 104/1/5 100/1/5 103/1/5
f 105/2/5 101/2/5 104/2/5
f 108/3/5 107/3/5 106/3/5
f 109/3/5 107/3/5 108/3/5
f 110/2/5 109/2/5 108/2/5
f 111/2/5 109/2/5 110/2/5
f 112/2/6 113/2/6 116/2/6
f 113/1/6 114/1/6 117/1/6
f 116/2/6 113/2/6 117/2/6
f 117/1/6 114/1/6 118/1/6
f 118/1/6 114/1/6 119/1/6
f 115/1/6 116/1/6 121/1/6
f 116/1/6 117/1/6 121/1/6
f 117/2/6 118/2/6 122/2/6
f 121/1/6 117/1/6 122/1/6
f 118/1/6 119/1/6 123/1/6
f 122/2/6 118/2/6 123/2/6
f 119/2/6 120/2/6 124/2/6
f 123/1/6 119/1/6 124/1/6
f 124/2/6 120/2/6 125/2/6
f 122/5/6 123/5/6 126/5/6
f 121/5/6 122/5/6 126/5/6
f 123/4/6 124/4/6 127/4/6
f 126/5/6 123/5/6 127/5/6
f 115/1/6 121/1/6 128/1/6
f 121/5/6 126/5/6 128/5/6
f 126/4/6 127/4/6 129/4/6
f 128/5/6 126/5/6 129/5/6
f 127/4/6 124/4/6 130/4/6
f 129/4/6 127/4/6 130/4/6
f 124/1/6 125/1/6 131/1/6
f 130/4/6 124/4/6 131/4/6
f 128/1/6 129/1/6 132/1/6
f 115/1/6 128/1/6 132/1/6
f 132/1/6 129/1/6 133/1/6
f 129/4/6 130/4/6 134/4/6
f 133/1/6 129/1/6 134/1/6
f 130/1/6 131/1/6 135/1/6
f 134/4/6 130/4/6 135/4/6
f 131/1/6 125/1/6 136/1/6
f 135/1/6 131/1/6 136/1/6
f 136/1/6 125/1/6 137/1/6
f 132/2/6 133/2/6 138/2/6
f 134/1/6 135/1/6 139/1/6
f 138/2/6 133/2/6 139/2/6
f 133/1/6 134/1/6 139/1/6
f 135/1/6 136/1/6 139/1/6
f 139/1/6 136/1/6 140/1/6
f 136/2/6 137/2/6 141/2/6
f 140/1/6 136/1/6 141/1/6
f 141/2/6 137/2/6 142/2/6
f 139/1/6 140/1/6 143/1/6
f 140/2/6 141/2/6 144/2/6
f 143/1/6 140/1/6 144/1/6
f 144/2/6 141/2/6 145/2/6
f 145/2/6 141/2/6 146/2/6
f 144/3/6 145/3/6 147/3/6
f 147/3/6 145/3/6 148/3/6
f 147/2/6 148/2/6 149/2/6
f 149/2/6 148/2/6 150/2/6
